<svg width="154" height="154" viewBox="0 0 154 154" fill="none" xmlns="http://www.w3.org/2000/svg">
<g id="https://lottiefiles.com/animations/check-oHOs632cfz" clip-path="url(#clip0_1_4311)">
<g id="Clip path group">
<mask id="mask0_1_4311" style="mask-type:luminance" maskUnits="userSpaceOnUse" x="0" y="0" width="154" height="154">
<g id="__lottie_element_1944">
<path id="Vector" d="M154 0H0V154H154V0Z" fill="white"/>
</g>
</mask>
<g mask="url(#mask0_1_4311)">
<g id="Group">
<g id="Group_2" opacity="0.26">
<g id="Group_3">
<path id="Vector_2" d="M80.5946 32.3398C104.393 32.3398 123.715 51.6619 123.715 75.4598C123.715 99.2578 104.393 118.58 80.5946 118.58C56.7967 118.58 37.4746 99.2578 37.4746 75.4598C37.4746 51.6619 56.7967 32.3398 80.5946 32.3398Z" fill="#D2DEFF"/>
</g>
</g>
<g id="Group_4">
<g id="Group_5">
<path id="Vector_3" d="M31.7401 49.6764L31.1156 49.8793C30.8925 49.9518 30.6564 49.8315 30.5839 49.6083L30.3812 48.9844C30.2435 48.5607 29.809 48.283 29.3779 48.3982C28.9249 48.5206 28.6615 49.0007 28.8063 49.4465L29.0236 50.1153C29.0961 50.3384 28.9758 50.5745 28.7527 50.647L28.1288 50.8498C27.705 50.9874 27.4275 51.4225 27.5428 51.8536C27.6651 52.3066 28.1451 52.5695 28.5908 52.4247L29.2597 52.2073C29.4828 52.1348 29.7189 52.2551 29.7914 52.4783L29.9943 53.1027C30.132 53.5264 30.5669 53.8034 30.9979 53.6882C31.451 53.5658 31.7139 53.0859 31.569 52.6401L31.3517 51.9713C31.2792 51.7482 31.3995 51.5121 31.6226 51.4396L32.2915 51.2223C32.7372 51.0774 32.971 50.5826 32.8037 50.1442C32.6508 49.7502 32.1638 49.5387 31.7401 49.6764Z" fill="#FEEB72"/>
</g>
</g>
<g id="Group_6">
<g id="Group_7">
<path id="Vector_4" d="M2.26771 39.9694L1.9583 39.8865C1.84773 39.8569 1.78312 39.745 1.81275 39.6344L1.89565 39.325C1.95185 39.1153 1.8475 38.8859 1.64069 38.8188C1.42246 38.7486 1.18724 38.8748 1.12798 39.0959L1.03923 39.4271C1.00961 39.5377 0.897697 39.6023 0.787124 39.5727L0.477719 39.4898C0.267978 39.4336 0.0384685 39.5384 -0.0286399 39.7453C-0.0988042 39.9635 0.0274943 40.1982 0.24864 40.2575L0.579862 40.3462C0.690435 40.3758 0.755046 40.4877 0.725418 40.5983L0.642513 40.9077C0.586313 41.1175 0.691157 41.347 0.897975 41.4141C1.1162 41.4842 1.35079 41.3584 1.41005 41.1373L1.49893 40.8056C1.52856 40.695 1.64047 40.6304 1.75104 40.66L2.08276 40.7489C2.3039 40.8082 2.53015 40.6679 2.5785 40.4438C2.62087 40.2421 2.47745 40.0256 2.26771 39.9694Z" fill="#F98585"/>
</g>
</g>
<g id="Group_8">
<g id="Group_9">
<path id="Vector_5" d="M37.8099 28.8161L37.4054 28.5826C37.2609 28.4991 37.2116 28.3166 37.295 28.1721L37.5288 27.7671C37.6874 27.4924 37.6271 27.1297 37.3608 26.9564C37.0799 26.7747 36.7003 26.8644 36.5332 27.1538L36.2827 27.5877C36.1993 27.7321 36.017 27.781 35.8725 27.6976L35.4675 27.4637C35.1928 27.3051 34.8299 27.3659 34.6566 27.6322C34.4749 27.9131 34.5648 28.2922 34.8542 28.4593L35.2881 28.7098C35.4326 28.7933 35.4812 28.976 35.3978 29.1205L35.1642 29.525C35.0056 29.7998 35.0663 30.1627 35.3326 30.336C35.6136 30.5177 35.9927 30.4278 36.1598 30.1384L36.41 29.7049C36.4934 29.5604 36.6765 29.5114 36.8209 29.5948L37.2544 29.8451C37.5438 30.0122 37.9171 29.9005 38.0695 29.6026C38.205 29.3341 38.0847 28.9747 37.8099 28.8161Z" fill="#2EE2B1"/>
</g>
</g>
<g id="Group_10">
<g id="Group_11">
<path id="Vector_6" d="M119.354 7.07061L118.649 6.77135C118.397 6.66444 118.281 6.3775 118.388 6.12565L118.687 5.42016C118.89 4.9415 118.719 4.36376 118.251 4.13553C117.758 3.89667 117.159 4.11802 116.945 4.62173L116.625 5.3773C116.518 5.62916 116.231 5.74501 115.979 5.6381L115.274 5.33864C114.795 5.13546 114.217 5.30624 113.989 5.77428C113.75 6.26736 113.971 6.86656 114.475 7.08037L115.231 7.40109C115.483 7.508 115.598 7.79521 115.491 8.04707L115.192 8.75208C114.989 9.23075 115.16 9.80848 115.628 10.0367C116.121 10.2756 116.72 10.0547 116.934 9.55099L117.254 8.79542C117.361 8.54356 117.649 8.42744 117.901 8.53434L118.656 8.85506C119.16 9.06888 119.744 8.81166 119.933 8.29732C120.1 7.83353 119.833 7.27379 119.354 7.07061Z" fill="#FEEB72"/>
</g>
</g>
<g id="Group_12">
<g id="Group_13">
<path id="Vector_7" d="M131.557 75.1959L131.167 75.084C131.027 75.0439 130.947 74.9004 130.987 74.7608L131.099 74.3704C131.175 74.1055 131.049 73.8122 130.787 73.7224C130.513 73.6287 130.211 73.7836 130.131 74.0624L130.011 74.4809C129.971 74.6205 129.828 74.7001 129.688 74.66L129.298 74.5481C129.033 74.4721 128.74 74.5995 128.65 74.8605C128.556 75.1353 128.711 75.4361 128.99 75.5161L129.408 75.6361C129.548 75.6761 129.628 75.8196 129.588 75.9593L129.476 76.3496C129.4 76.6146 129.527 76.9079 129.788 76.9977C130.063 77.0915 130.364 76.9364 130.444 76.6576L130.564 76.2391C130.604 76.0995 130.747 76.0199 130.887 76.06L131.305 76.18C131.584 76.2599 131.875 76.087 131.941 75.8043C131.999 75.5491 131.822 75.2719 131.557 75.1959Z" fill="#E8EEFF"/>
</g>
</g>
<g id="Group_14">
<g id="Group_15">
<path id="Vector_8" d="M149.949 41.6417L149.645 41.81C149.537 41.87 149.402 41.8309 149.342 41.7227L149.174 41.4196C149.06 41.214 148.807 41.1138 148.595 41.217C148.373 41.3262 148.285 41.6015 148.405 41.8179L148.584 42.1425C148.644 42.2507 148.606 42.3861 148.497 42.4461L148.194 42.6141C147.989 42.7281 147.889 42.9814 147.992 43.193C148.101 43.4154 148.376 43.5034 148.593 43.3834L148.917 43.2035C149.025 43.1435 149.161 43.1819 149.221 43.2901L149.389 43.5936C149.503 43.7992 149.756 43.8994 149.968 43.7962C150.19 43.6871 150.278 43.4117 150.158 43.1953L149.978 42.8703C149.918 42.7621 149.957 42.6274 150.065 42.5674L150.39 42.3872C150.606 42.2673 150.678 41.9871 150.547 41.7767C150.428 41.5878 150.154 41.5278 149.949 41.6417Z" fill="#E8EEFF"/>
</g>
</g>
<g id="Group_16">
<g id="Group_17">
<path id="Vector_9" d="M114.211 60.0186L114.052 60.107C113.995 60.1386 113.924 60.1184 113.892 60.0613L113.804 59.902C113.744 59.7938 113.611 59.7413 113.5 59.7954C113.382 59.8528 113.336 59.997 113.399 60.111L113.494 60.2821C113.526 60.3391 113.506 60.4096 113.449 60.4412L113.289 60.5295C113.181 60.5895 113.129 60.7225 113.183 60.8339C113.24 60.9512 113.384 60.9975 113.498 60.9343L113.669 60.8394C113.726 60.8078 113.797 60.828 113.828 60.8851L113.917 61.0444C113.977 61.1526 114.11 61.2051 114.221 61.151C114.338 61.0936 114.384 60.949 114.321 60.8349L114.227 60.6643C114.195 60.6073 114.215 60.5368 114.272 60.5052L114.443 60.4106C114.557 60.3474 114.595 60.2004 114.526 60.0896C114.463 59.9904 114.319 59.9586 114.211 60.0186Z" fill="#D1DCFC"/>
</g>
</g>
<g id="Group_18">
<g id="Group_19">
<path id="Vector_10" d="M48.4562 37.224L48.2001 37.1649C48.1086 37.1438 48.0519 37.0538 48.073 36.9622L48.1322 36.7061C48.1724 36.5321 48.0807 36.3471 47.9087 36.2979C47.7278 36.2466 47.5385 36.3568 47.4962 36.5398L47.4328 36.8144C47.4117 36.906 47.3218 36.9621 47.2303 36.941L46.9742 36.8819C46.8001 36.8417 46.615 36.9338 46.5658 37.1058C46.5145 37.2868 46.6248 37.4756 46.8079 37.5178L47.0825 37.5812C47.174 37.6024 47.23 37.6927 47.2089 37.7843L47.1498 38.0404C47.1096 38.2144 47.2017 38.3995 47.3737 38.4487C47.5547 38.5 47.7436 38.3892 47.7859 38.2062L47.8491 37.9321C47.8703 37.8406 47.9608 37.784 48.0523 37.8051L48.3264 37.8684C48.5095 37.9107 48.6918 37.7895 48.7251 37.6043C48.7541 37.4377 48.6303 37.2642 48.4562 37.224Z" fill="#E8EEFF"/>
</g>
</g>
<g id="Group_20">
<g id="Group_21">
<path id="Vector_11" d="M87.4649 14.7463L87.2436 15.0196C87.1645 15.1173 87.0237 15.1321 86.926 15.053L86.6527 14.8317C86.4672 14.6815 86.1907 14.6835 86.0309 14.8613C85.8634 15.0486 85.885 15.3409 86.0801 15.4988L86.3729 15.736C86.4706 15.8151 86.4854 15.9559 86.4063 16.0536L86.185 16.3269C86.0348 16.5124 86.0368 16.7888 86.2146 16.9486C86.4019 17.1162 86.6942 17.0946 86.8521 16.8995L87.0893 16.6067C87.1684 16.509 87.3092 16.4942 87.4069 16.5733L87.6802 16.7946C87.8657 16.9448 88.1421 16.9428 88.3019 16.765C88.4695 16.5777 88.4479 16.2854 88.2528 16.1275L87.96 15.8903C87.8623 15.8112 87.8475 15.6704 87.9266 15.5727L88.1637 15.2798C88.3217 15.0848 88.2821 14.7944 88.0792 14.646C87.8959 14.5134 87.6151 14.5608 87.4649 14.7463Z" fill="#E8EEFF"/>
</g>
</g>
<g id="Group_22">
<g id="Group_23">
<path id="Vector_12" d="M67.9621 1.29068L67.706 1.23156C67.6144 1.21042 67.5578 1.12042 67.5789 1.02889L67.638 0.7728C67.6782 0.598739 67.5866 0.413738 67.4146 0.364549C67.2336 0.313282 67.0443 0.423421 67.0021 0.606486L66.9387 0.881083C66.9175 0.972615 66.8277 1.02878 66.7361 1.00765L66.48 0.948527C66.306 0.908341 66.1209 1.00047 66.0717 1.17246C66.0204 1.35344 66.1307 1.54222 66.3137 1.58448L66.5883 1.64788C66.6799 1.66901 66.7359 1.75939 66.7148 1.85093L66.6556 2.10702C66.6155 2.28108 66.7076 2.46619 66.8796 2.51538C67.0606 2.56665 67.2495 2.45589 67.2917 2.27283L67.355 1.99873C67.3761 1.9072 67.4666 1.85065 67.5582 1.87178L67.8323 1.93506C68.0153 1.97733 68.1977 1.8561 68.2309 1.67096C68.2599 1.50433 68.1361 1.33086 67.9621 1.29068Z" fill="#E8EEFF"/>
</g>
</g>
<g id="Group_24">
<g id="Group_25">
<path id="Vector_13" d="M48.4562 55.1906L48.2001 55.1315C48.1086 55.1103 48.0519 55.0203 48.073 54.9288L48.1322 54.6727C48.1724 54.4986 48.0807 54.3136 47.9087 54.2645C47.7278 54.2132 47.5385 54.3233 47.4962 54.5064L47.4328 54.781C47.4117 54.8725 47.3218 54.9287 47.2303 54.9076L46.9742 54.8484C46.8001 54.8082 46.615 54.9004 46.5658 55.0724C46.5145 55.2533 46.6248 55.4421 46.8079 55.4844L47.0825 55.5478C47.174 55.5689 47.23 55.6593 47.2089 55.7508L47.1498 56.0069C47.1096 56.181 47.2017 56.3661 47.3737 56.4153C47.5547 56.4666 47.7436 56.3558 47.7859 56.1727L47.8491 55.8986C47.8703 55.8071 47.9608 55.7506 48.0523 55.7717L48.3264 55.835C48.5095 55.8772 48.6918 55.756 48.7251 55.5709C48.7541 55.4042 48.6303 55.2308 48.4562 55.1906Z" fill="#D1DCFC"/>
</g>
</g>
<g id="Group_26">
<g id="Group_27">
<path id="Vector_14" d="M16.6281 34.6574L16.372 34.5983C16.2805 34.5771 16.2238 34.4871 16.2449 34.3956L16.304 34.1395C16.3442 33.9654 16.2526 33.7804 16.0806 33.7312C15.8996 33.68 15.7104 33.7901 15.6681 33.9732L15.6047 34.2478C15.5836 34.3393 15.4937 34.3955 15.4021 34.3743L15.1461 34.3152C14.972 34.275 14.7869 34.3672 14.7377 34.5392C14.6864 34.7201 14.7967 34.9089 14.9797 34.9512L15.2543 35.0146C15.3459 35.0357 15.4019 35.1261 15.3808 35.2176L15.3217 35.4737C15.2815 35.6478 15.3736 35.8329 15.5456 35.8821C15.7266 35.9333 15.9155 35.8226 15.9577 35.6395L16.021 35.3654C16.0421 35.2739 16.1326 35.2173 16.2242 35.2385L16.4983 35.3018C16.6813 35.344 16.8637 35.2228 16.897 35.0377C16.9259 34.871 16.8021 34.6976 16.6281 34.6574Z" fill="#E8EEFF"/>
</g>
</g>
<g id="Group_28">
<g id="Group_29">
<path id="Vector_15" d="M34.5939 17.0118L34.3043 16.9449C34.2008 16.921 34.1373 16.8195 34.1612 16.7159L34.228 16.4268C34.2733 16.2302 34.1693 16.0213 33.9752 15.9654C33.771 15.9072 33.5567 16.0321 33.5091 16.2387L33.4375 16.5488C33.4136 16.6524 33.312 16.7158 33.2084 16.6919L32.9193 16.6252C32.7228 16.5798 32.5138 16.6838 32.4579 16.878C32.3998 17.0821 32.5247 17.2964 32.7312 17.3441L33.0413 17.4157C33.1449 17.4396 33.2084 17.5412 33.1845 17.6447L33.1176 17.9343C33.0722 18.1309 33.1763 18.3393 33.3705 18.3952C33.5746 18.4534 33.7889 18.3285 33.8366 18.1219L33.9082 17.8118C33.9321 17.7083 34.0337 17.6448 34.1372 17.6687L34.4473 17.7403C34.6539 17.788 34.8601 17.6501 34.8973 17.4411C34.9298 17.2527 34.7905 17.0572 34.5939 17.0118Z" fill="#E8EEFF"/>
</g>
</g>
<g id="Group_30">
<g id="Group_31">
<path id="Vector_16" d="M24.1272 73.9199C25.5438 73.9199 26.6939 75.07 26.6939 76.4866C26.6939 77.9031 25.5438 79.0533 24.1272 79.0533C22.7107 79.0533 21.5605 77.9031 21.5605 76.4866C21.5605 75.07 22.7107 73.9199 24.1272 73.9199Z" fill="white"/>
</g>
<g id="Group_32">
<path id="Vector_17" d="M24.1281 74.5615C25.2789 74.5615 26.0531 75.3358 26.0531 76.4865C26.0531 77.6373 25.2789 78.4115 24.1281 78.4115C22.9774 78.4115 22.2031 77.6373 22.2031 76.4865C22.2031 75.3358 22.9774 74.5615 24.1281 74.5615Z" stroke="#E8EEFF" stroke-width="2.5"/>
</g>
</g>
<g id="Group_33">
<g id="Group_34">
<path id="Vector_18" d="M109.597 36.6392C109.942 36.6392 110.175 36.8714 110.175 37.2167C110.175 37.5619 109.942 37.7942 109.597 37.7942C109.252 37.7942 109.02 37.5619 109.02 37.2167C109.02 36.8714 109.252 36.6392 109.597 36.6392Z" stroke="#E8EEFF" stroke-width="0.75"/>
</g>
</g>
<g id="Group_35">
<g id="Group_36">
<path id="Vector_19" d="M105.492 46.3923C105.837 46.3923 106.069 46.6246 106.069 46.9698C106.069 47.3151 105.837 47.5473 105.492 47.5473C105.146 47.5473 104.914 47.3151 104.914 46.9698C104.914 46.6246 105.146 46.3923 105.492 46.3923Z" stroke="#D1DCFC" stroke-width="0.75"/>
</g>
</g>
<g id="Group_37">
<g id="Group_38">
<path id="Vector_20" d="M58.2647 23.0999C59.8229 23.0999 61.0881 24.365 61.0881 25.9232C61.0881 27.4814 59.8229 28.7465 58.2647 28.7465C56.7065 28.7465 55.4414 27.4814 55.4414 25.9232C55.4414 24.365 56.7065 23.0999 58.2647 23.0999Z" fill="white"/>
</g>
<g id="Group_39">
<path id="Vector_21" d="M58.2651 23.6133C59.6106 23.6133 60.5751 24.5777 60.5751 25.9233C60.5751 27.2688 59.6106 28.2333 58.2651 28.2333C56.9195 28.2333 55.9551 27.2688 55.9551 25.9233C55.9551 24.5777 56.9195 23.6133 58.2651 23.6133Z" stroke="#F98585" stroke-width="2"/>
</g>
</g>
<g id="Group_40">
<g id="Group_41">
<path id="Vector_22" d="M150.663 55.4399C152.221 55.4399 153.487 56.7051 153.487 58.2633C153.487 59.8215 152.221 61.0866 150.663 61.0866C149.105 61.0866 147.84 59.8215 147.84 58.2633C147.84 56.7051 149.105 55.4399 150.663 55.4399Z" fill="white"/>
</g>
<g id="Group_42">
<path id="Vector_23" d="M150.664 55.9534C152.009 55.9534 152.974 56.9178 152.974 58.2634C152.974 59.6089 152.009 60.5734 150.664 60.5734C149.318 60.5734 148.354 59.6089 148.354 58.2634C148.354 56.9178 149.318 55.9534 150.664 55.9534Z" stroke="#229FF2" stroke-width="2"/>
</g>
</g>
<g id="Group_43">
<g id="Group_44">
<path id="Vector_24" d="M128.591 90.7314C129.423 90.7314 130.003 91.311 130.003 92.1431C130.003 92.9752 129.423 93.5548 128.591 93.5548C127.759 93.5548 127.18 92.9752 127.18 92.1431C127.18 91.311 127.759 90.7314 128.591 90.7314Z" stroke="#FEEB72" stroke-width="1.5"/>
</g>
</g>
<g id="Group_45">
<g id="Group_46">
<path id="Vector_25" d="M102.923 24.5115C103.755 24.5115 104.335 25.091 104.335 25.9231C104.335 26.7552 103.755 27.3348 102.923 27.3348C102.091 27.3348 101.512 26.7552 101.512 25.9231C101.512 25.091 102.091 24.5115 102.923 24.5115Z" stroke="#FEEB72" stroke-width="1.5"/>
</g>
</g>
<g id="Group_47">
<g id="Group_48">
<path id="Vector_26" d="M149.057 79.6488L151.823 75.987L153.622 80.2093L149.057 79.6488Z" stroke="#F98585" stroke-width="2" stroke-linecap="round"/>
</g>
</g>
<g id="Group_49">
<g id="Group_50">
<path id="Vector_27" d="M126.667 50.2911L129.482 47.9352L130.124 51.5491L126.667 50.2911Z" stroke="#2EE2B1" stroke-width="1.75" stroke-linecap="round"/>
</g>
</g>
<g id="Group_51">
<g id="Group_52">
<path id="Vector_28" d="M120.535 48.1801L120.686 46.4825L122.083 47.4584L120.535 48.1801Z" stroke="#E8EDFC" stroke-width="0.75" stroke-linecap="round"/>
</g>
</g>
<g id="Group_53">
<g id="Group_54">
<path id="Vector_29" d="M62.3711 73.4066C62.3711 73.4066 72.6378 83.4166 73.4078 83.6732C74.0232 83.8786 87.9115 69.9908 93.4693 64.4006" stroke="#2EE2B1" stroke-width="11" stroke-linecap="round"/>
</g>
</g>
</g>
</g>
</g>
</g>
<defs>
<clipPath id="clip0_1_4311">
<rect width="154" height="154" fill="white"/>
</clipPath>
</defs>
</svg>
